<?xml version="1.0" encoding="utf-8"?>
<!-- Generator: Adobe Illustrator 16.0.0, SVG Export Plug-In . SVG Version: 6.00 Build 0)  -->
<!DOCTYPE svg PUBLIC "-//W3C//DTD SVG 1.1//EN" "http://www.w3.org/Graphics/SVG/1.1/DTD/svg11.dtd">
<svg version="1.1" id="Layer_1" xmlns="http://www.w3.org/2000/svg" xmlns:xlink="http://www.w3.org/1999/xlink" x="0px" y="0px"
	 width="600px" height="250px" viewBox="0 0 600 250" enable-background="new 0 0 600 250" xml:space="preserve">
<g>
	<g id="_x23_dd2f49ff">
		<path fill="#DD2F49" d="M126.744,88.251c6.05,0.203,12.141-0.378,18.177,0.284c6.13,2.625,11.869,6.118,17.756,9.244
			c-5.414,2.693-10.854,5.319-16.064,8.391c0.826,1.516,1.042,5.4,3.668,4.101c6.631-2.166,12.329-6.415,18.825-8.892
			c4.114,1.61,7.864,3.979,11.775,6.022c-4.656,2.477-9.487,4.642-14.089,7.213c-1.611,0.771-1.881,2.653-2.599,4.087
			c0.879,0.528,2.612,1.583,3.492,2.125c6.524-3.154,12.762-6.917,19.462-9.705c4.101,1.408,7.769,3.803,11.586,5.847
			c-5.644,3.018-11.423,5.806-16.932,9.081c0.867,1.665,0.731,4.899,3.424,4.183c7.038-2.463,13.142-7.066,20.206-9.488
			c14.698,7.294,29.072,15.265,43.512,23.062c4.439,2.002,4.331,7.281,4.291,11.381c-2.152,2.287-4.141,5.197-7.444,5.793
			c-4.331,0.623-8.715,0.258-13.074,0.34c-59.589,0.066-119.18-0.027-178.771,0.053c-10.679-16.932-10.719-39.573-0.352-56.667
			c4.615-0.014,9.244-0.014,13.858,0.014c2.26,7.606,6.916,14.779,14.225,18.352c11.964,6.158,27.541,2.504,36.434-7.308
			C125.093,108.606,127.949,98.077,126.744,88.251z"/>
		<path fill="#DD2F49" d="M175.128,98.212c6.131-3.194,12.085-6.767,18.379-9.636c6.158-0.731,12.397-0.149,18.596-0.271
			c-1.813,11.653,3.03,24.09,12.504,31.169c8.189,5.968,19.422,8.77,29.112,4.98c8.891-2.937,15.022-11.03,17.58-19.787
			c4.561,0.122,9.15-0.271,13.683,0.298c10.678,16.742,10.164,39.601-0.217,56.396c-9.704,0.068-19.421-0.203-29.111,0.068
			c4.521-6.93,4.061-17.445-3.587-21.979C226.503,125.564,200.693,112.111,175.128,98.212z"/>
		<path fill="#DD2F49" d="M60.887,168.277c3.898-1.801,8.378-0.689,12.519-0.648c-0.419,3.301-0.961,6.59-1.692,9.838
			c-2.937,0.176-5.86,0.285-8.797,0.365C62.092,174.693,61.104,171.539,60.887,168.277z"/>
		<path fill="#DD2F49" d="M111.87,167.736c4.195-0.338,8.54-0.906,12.627,0.338c-0.297,3.1-0.974,6.172-2.016,9.109
			c-2.748,1.014-5.779,0.648-8.581,0.121C112.709,174.246,112.316,170.957,111.87,167.736z"/>
		<path fill="#DD2F49" d="M163.083,167.574c4.086-0.189,8.188-0.244,12.288-0.027c-0.501,3.127-0.189,6.672-1.813,9.447
			c-2.531,1.447-5.874,0.486-8.716,0.826C163.921,174.477,163.407,171.025,163.083,167.574z"/>
		<path fill="#DD2F49" d="M215.012,167.615c3.817-0.541,7.688-0.176,11.532,0.094c-0.447,3.398-1.002,6.768-1.828,10.084
			c-2.72-0.027-5.454,0.066-8.147-0.271C214.743,174.936,213.199,170.43,215.012,167.615z"/>
		<path fill="#DD2F49" d="M264.832,167.75c4.277-0.514,8.593-0.365,12.884,0.027c-0.46,3.275-1.083,6.537-1.84,9.771
			c-2.884,0-5.942,0.664-8.704-0.406C265.887,174.152,265.373,170.93,264.832,167.75z"/>
	</g>
	<path fill="#2D2A2A" d="M309.748,89.995c6.36,0.258,15.036-1.516,18.919,5.008c2.871,4.737,0.041,10.177-3.842,13.276
		c4.289,4.899,7.523,10.584,11.193,15.943c-1.938,0-3.859,0-5.781,0c-4.168-6.023-7.133-14.753-15.592-15.538
		c-0.146,5.17-0.121,10.354-0.135,15.538c-1.189,0-3.545,0-4.735,0C309.736,112.813,309.748,101.405,309.748,89.995 M314.552,94.083
		c-0.027,3.722,0,7.457,0.094,11.179c2.49-0.312,5.062-0.366,7.484-1.178c3.1-1.624,3.508-6.564,0.475-8.458
		C320.116,94.421,317.231,94.515,314.552,94.083z"/>
	<path fill="#2D2A2A" d="M347.114,90.739c10.896-4.317,25.174,3.641,24.916,15.93c0.826,10.502-9.541,18.825-19.57,17.933
		c-8.85-0.123-17.066-7.593-17.025-16.633C334.935,100.429,339.97,93.094,347.114,90.739 M348.63,95.314
		c-9.527,2.922-11.002,17.58-2.367,22.453c7.768,5.373,20.246,0.135,20.693-9.623C368.187,98.603,357.075,91.619,348.63,95.314z"/>
	<path fill="#2D2A2A" d="M381.747,94.434c6.688-6.375,16.77-5.252,24.756-2.26c0.027,1.326,0.094,3.992,0.135,5.318
		c-6.416-2.789-14.631-5.049-20.68-0.204c-6.74,4.819-6.361,16.31,0.893,20.438c6.293,3.937,14.021,1.651,20.193-1.312
		c-0.123,1.827-0.217,3.653-0.326,5.494c-7.402,2.991-16.482,4.318-23.426-0.527C374.481,115.507,373.532,101.228,381.747,94.434z"
		/>
	<path fill="#2D2A2A" d="M412.606,90.022c1.205,0,3.6,0,4.789,0c0,5.224,0,10.461-0.053,15.686
		c4.764-5.266,9.648-10.408,14.428-15.659c2.096-0.027,4.209-0.041,6.32-0.054c-5.021,5.359-9.906,10.868-14.996,16.16
		c6.104,6.09,12.424,11.964,18.488,18.094c-2.26-0.013-4.521-0.026-6.781-0.04c-5.711-5.671-11.584-11.207-17.336-16.837
		c-0.096,5.617-0.082,11.233-0.07,16.863c-1.203-0.013-3.584-0.013-4.789-0.026C412.593,112.813,412.606,101.417,412.606,90.022z"/>
	<path fill="#2D2A2A" d="M449.905,90.671c4.074-2.043,8.609-0.393,12.656,0.852c0.094,1.813,0.188,3.627,0.295,5.455
		c-3.869-1.921-8.119-2.896-12.438-2.206c-0.27,1.542-0.621,3.084-0.689,4.655c4.006,5.062,11.801,6.606,13.939,13.224
		c1.68,4.778-1.354,10.366-6.291,11.489c-4.291,1.489-8.568-0.703-12.453-2.354c-0.109-2.125-0.217-4.236-0.34-6.335
		c3.02,2.086,6.215,4.859,10.152,4.346c2.545-0.177,5.184-2.138,4.656-4.954c-2.814-5.901-10.557-6.983-13.793-12.546
		C443.45,98.087,445.479,92.417,449.905,90.671z"/>
	<path fill="#2D2A2A" d="M466.743,90.022c9.473,0,18.947,0,28.42,0c0,1.475,0,2.95,0.014,4.425c-3.951,0-7.891,0-11.828,0
		c0,9.92,0,19.854,0,29.775c-1.178,0-3.52,0-4.697,0c0-9.921,0-19.854,0-29.775c-3.965,0-7.943,0-11.908,0
		C466.743,93.337,466.743,91.131,466.743,90.022z"/>
	<path fill="#2D2A2A" d="M505.058,89.765c0.893-0.013,2.664-0.041,3.559-0.041c4.912,11.504,10.029,22.927,14.941,34.444
		c-1.232,0.028-3.682,0.054-4.912,0.081c-1.502-3.41-2.992-6.807-4.467-10.218c-4.873-0.014-9.758-0.014-14.629,0
		c-1.477,3.398-2.939,6.794-4.387,10.205c-1.678-0.026-3.344-0.054-5.021-0.067C495.095,112.677,500.118,101.241,505.058,89.765
		 M506.884,97.019c-1.746,4.25-3.586,8.459-5.455,12.667c3.629,0,7.242,0.013,10.869,0
		C510.47,105.478,508.657,101.255,506.884,97.019z"/>
	<path fill="#2D2A2A" d="M527.646,89.995c6.131,0.297,14.021-1.447,18.352,4.127c3.641,4.71,0.961,10.922-3.275,14.157
		c4.291,4.913,7.525,10.597,11.221,15.957c-1.949-0.013-3.885-0.013-5.82-0.013c-4.154-6.036-7.133-14.739-15.564-15.551
		c-0.162,5.184-0.135,10.367-0.123,15.551c-1.203,0-3.584,0-4.789,0C527.646,112.813,527.646,101.405,527.646,89.995 M532.45,94.083
		c-0.027,3.722,0,7.457,0.094,11.179c3.75-0.393,9.895-0.19,10.016-5.4C542.884,94.393,536.239,94.515,532.45,94.083z"/>
	<path fill="#2D2A2A" d="M317.56,144.975c4.074-2.002,8.566-0.365,12.586,0.879c0.096,1.814,0.191,3.627,0.299,5.455
		c-3.885-1.936-8.135-2.91-12.465-2.18c-0.258,1.531-0.596,3.074-0.65,4.643c3.709,4.643,10.301,6.213,13.264,11.559
		c2.559,4.547,0.502,11.111-4.615,12.789c-4.533,2.031-9.297-0.16-13.451-2.029c-0.123-2.111-0.23-4.209-0.352-6.307
		c3.004,2.057,6.156,4.844,10.08,4.346c2.572-0.096,5.199-2.139,4.738-4.928c-2.814-5.941-10.611-7.01-13.818-12.615
		C311.022,152.352,313.106,146.68,317.56,144.975z"/>
	<path fill="#2D2A2A" d="M337.036,144.354c1.203,0,3.586,0,4.789,0c0,4.967,0,9.92,0,14.887c6.525,0,13.049,0,19.572,0
		c0-4.967,0-9.92,0-14.887c1.203,0,3.586,0,4.789,0c0,11.395,0,22.805,0,34.199c-1.203,0-3.586,0-4.789,0c0-4.967,0-9.92,0-14.887
		c-6.523,0-13.047,0-19.572,0c0,4.967,0,9.92-0.012,14.887c-1.191,0-3.586,0-4.777,0
		C337.036,167.158,337.036,155.748,337.036,144.354z"/>
	<path fill="#2D2A2A" d="M383.81,145.082c10.475-4.113,24.281,2.898,24.916,14.672c1.475,10.137-7.674,19.26-17.607,19.164
		c-8.42,0.609-17.201-5.223-18.584-13.805C370.626,156.803,375.702,147.736,383.81,145.082 M385.433,149.631
		c-9.568,2.91-11.057,17.609-2.395,22.467c7.768,5.357,20.232,0.135,20.68-9.623C404.95,152.947,393.864,145.977,385.433,149.631z"
		/>
	<path fill="#2D2A2A" d="M415.534,144.354c6.551,0,13.113,0,19.678,0c0,1.109,0,3.314,0,4.424c-4.967,0-9.934,0-14.889,0
		c-0.012,3.492,0,6.971,0,10.463c4.711,0,9.436,0,14.158,0c0,1.475,0,2.938,0.014,4.412c-4.725,0.014-9.447,0.014-14.172,0.014
		c-0.012,3.492,0,6.982,0,10.463c5.049-0.016,10.098,0.012,15.145,0c0,1.107,0,3.314-0.014,4.424c-6.633,0-13.262,0-19.895,0
		C415.519,167.158,415.534,155.748,415.534,144.354z"/>
	<path fill="#2D2A2A" d="M443.331,145.016c4.088-2.057,8.621-0.42,12.682,0.838c0.094,1.814,0.189,3.627,0.299,5.455
		c-3.871-1.922-8.107-2.895-12.424-2.191c-0.287,1.529-0.746,3.07-0.664,4.641c3.652,4.656,10.219,6.199,13.182,11.49
		c2.625,4.562,0.582,11.193-4.576,12.871c-4.533,2.031-9.283-0.16-13.438-2.029c-0.121-2.111-0.23-4.209-0.352-6.307
		c3.006,2.084,6.199,4.857,10.137,4.346c2.545-0.137,5.158-2.152,4.682-4.941c-2.707-5.576-9.648-6.889-13.262-11.666
		C436.647,153.352,438.556,146.869,443.331,145.016z"/>
</g>
</svg>
